# xmcd
#
# Track frame offsets: 
#        183
#        10520
#        21663
#        30978
#        47698
#        58835
#        70718
#        80785
#        93365
#        102960
#        113410
#        125900
#        137790
#        147498
#
# Disc length: 2112 seconds
#
# Revision: 0
# Processed by: cddbd v1.5.2PL0 Copyright (c) Steve Scherf et al.
# Submitted via: ExactAudioCopy v1.3
#
DISCID=c0083e0e
DTITLE=Various Artist - The La Salle Chicago Blues Recordings, Vol.2
DYEAR=1993
DGENRE=Blues
TTITLE0=Eddie Clearwater - Cool Clear Water
TTITLE1=Sy Perry - I Really Don't Have The Blues
TTITLE2=Little Mac Simmons - Driving Wheel
TTITLE3=Eddie Boyd - I Cry
TTITLE4=Eddie Clearwater - Ain't That A Shame
TTITLE5=Eddie Clearwater - Dancin' Time
TTITLE6=Sy Perry - I Don't Understand You, Baby
TTITLE7=Sunnyland Slim - Something Is Going Wrong
TTITLE8=Eddie Clearwater - Baby Please
TTITLE9=Eddie Boyd - Vacation From The Blues
TTITLE10=Little Wolf Jr. - Inflation Blues
TTITLE11=Jump Jackson - Midnight Shuffle
TTITLE12=Little Mac Simmons - Broken Heart
TTITLE13=Wilbur 'Hi-Fi' White - Don't Look Now
EXTD=
EXTT0=
EXTT1=
EXTT2=
EXTT3=
EXTT4=
EXTT5=
EXTT6=
EXTT7=
EXTT8=
EXTT9=
EXTT10=
EXTT11=
EXTT12=
EXTT13=
PLAYORDER=
